
<svg width="1064" height="990" viewBox="0 0 1064 990" fill="none" xmlns="http://www.w3.org/2000/svg">
<g clip-path="url(#clip0_2_43)">
<path fill-rule="evenodd" clip-rule="evenodd" d="M379.475 8.50249C491.884 20.8452 542.304 140.117 629.502 212.117C778.854 335.436 1051.55 371.773 1053.98 565.435C1056.47 763.859 825.995 884.101 638.76 949.871C476.437 1006.89 291.586 983.767 152.897 881.959C36.7653 796.711 37.8845 636.688 17.7958 494.04C0.822964 373.516 -23.1121 246.052 49.5984 148.442C124.667 47.6659 254.559 -5.21363 379.475 8.50249Z" fill="#C86262" fill-opacity="0.58"/>
<g clip-path="url(#clip1_2_43)">
<path d="M705.769 294.587V256H699.769V294.587C698.048 295.283 696.623 296.556 695.738 298.188C694.852 299.82 694.562 301.709 694.917 303.531C695.271 305.354 696.249 306.996 697.681 308.177C699.114 309.357 700.913 310.003 702.769 310.003C704.626 310.003 706.425 309.357 707.857 308.177C709.29 306.996 710.267 305.354 710.622 303.531C710.977 301.709 710.687 299.82 709.801 298.188C708.916 296.556 707.49 295.283 705.769 294.587Z" fill="#E6E6E6"/>
<path d="M719.769 684H678.769V186H662.769V684H621.769C616.91 684 612.099 684.957 607.61 686.816C603.121 688.676 599.042 691.401 595.606 694.837C592.171 698.273 589.445 702.352 587.586 706.841C585.726 711.33 584.769 716.141 584.769 721V721H756.769V721C756.769 716.141 755.812 711.33 753.953 706.841C752.094 702.352 749.368 698.273 745.932 694.837C742.497 691.401 738.418 688.676 733.929 686.816C729.44 684.957 724.628 684 719.769 684V684Z" fill="#E6E6E6"/>
<path d="M584.852 260H756.686L746.179 128.66C745.794 124.131 743.73 119.91 740.39 116.827C737.05 113.743 732.678 112.022 728.133 112H613.406C608.861 112.022 604.489 113.743 601.149 116.827C597.809 119.91 595.744 124.131 595.36 128.66L584.852 260Z" fill="#EE4444"/>
<path d="M98.0977 569.536H622.576V515.989C622.576 371.391 504.936 253.75 360.337 253.75C215.738 253.75 98.0977 371.391 98.0977 515.989V569.536Z" fill="#3F3D56"/>
<path opacity="0.2" d="M98.0977 569.536H622.576V515.989C622.576 371.391 504.936 253.75 360.337 253.75C215.738 253.75 98.0977 371.391 98.0977 515.989V569.536Z" fill="black"/>
<path d="M166.072 588.071H569.705C569.321 566.835 560.622 546.598 545.477 531.707C530.332 516.817 509.95 508.462 488.711 508.438H247.066C225.827 508.462 205.445 516.817 190.3 531.707C175.155 546.598 166.456 566.835 166.072 588.071V588.071Z" fill="#EE4444"/>
<path d="M118.006 579.833C162.744 579.833 199.012 543.565 199.012 498.827C199.012 454.089 162.744 417.821 118.006 417.821C73.2676 417.821 37 454.089 37 498.827C37 543.565 73.2676 579.833 118.006 579.833Z" fill="#3F3D56"/>
<path d="M609.533 579.833C654.271 579.833 690.539 543.565 690.539 498.827C690.539 454.089 654.271 417.821 609.533 417.821C564.795 417.821 528.527 454.089 528.527 498.827C528.527 543.565 564.795 579.833 609.533 579.833Z" fill="#3F3D56"/>
<path d="M548.435 540.017V570.222H174.298V540.017H90.5463V687.239C90.5463 696.259 94.1295 704.91 100.508 711.288C106.886 717.667 115.537 721.25 124.557 721.25H598.176C602.643 721.25 607.065 720.37 611.192 718.661C615.318 716.952 619.067 714.447 622.226 711.288C625.384 708.13 627.889 704.381 629.598 700.254C631.307 696.128 632.187 691.705 632.187 687.239V540.017H548.435Z" fill="#3F3D56"/>
<path opacity="0.2" d="M118.006 515.303C127.105 515.303 134.482 507.926 134.482 498.827C134.482 489.728 127.105 482.351 118.006 482.351C108.907 482.351 101.53 489.728 101.53 498.827C101.53 507.926 108.907 515.303 118.006 515.303Z" fill="black"/>
<path opacity="0.2" d="M609.533 515.303C618.632 515.303 626.009 507.926 626.009 498.827C626.009 489.728 618.632 482.351 609.533 482.351C600.434 482.351 593.057 489.728 593.057 498.827C593.057 507.926 600.434 515.303 609.533 515.303Z" fill="black"/>
<path d="M390.178 244.496C390.178 244.496 391.798 275.271 403.136 281.75C414.474 288.229 403.136 331.961 403.136 331.961L349.685 333.581L346.446 281.75C346.446 281.75 352.924 260.694 349.685 250.975C346.446 241.257 390.178 244.496 390.178 244.496Z" fill="#FFB8B8"/>
<path d="M450.107 672.102L430.671 694.778L461.446 723.933L477.643 691.539L450.107 672.102Z" fill="#FFB8B8"/>
<path d="M312.431 672.102L331.868 694.778L301.093 723.933L284.896 691.539L312.431 672.102Z" fill="#FFB8B8"/>
<path d="M439.579 457.489C439.579 457.489 556.199 496.363 549.72 533.616C543.241 570.87 493.03 702.067 493.03 702.067C493.03 702.067 465.495 702.067 444.438 672.912L459.016 640.518C459.016 640.518 452.537 622.701 463.875 619.461C475.213 616.222 481.692 559.532 481.692 559.532C481.692 559.532 399.086 553.053 381.269 522.278L348.875 444.532L439.579 457.489Z" fill="#2F2E41"/>
<path d="M322.96 457.489C322.96 457.489 206.34 496.363 212.819 533.616C219.298 570.87 269.509 702.067 269.509 702.067C269.509 702.067 297.044 702.067 318.1 672.912L303.523 640.518C303.523 640.518 310.002 622.701 298.664 619.461C287.326 616.222 280.847 559.532 280.847 559.532C280.847 559.532 363.453 553.053 381.269 522.278L413.664 444.532L322.96 457.489Z" fill="#2F2E41"/>
<path d="M455.777 711.785C455.777 711.785 471.974 697.208 473.593 708.546C475.213 719.884 471.974 765.236 471.974 765.236C471.974 765.236 488.171 799.25 463.875 799.25C439.579 799.25 428.241 773.334 431.481 747.419C434.72 721.503 420.143 711.785 420.143 711.785C420.143 711.785 402.326 676.151 420.143 672.912C437.96 669.673 444.439 677.771 444.439 677.771C444.439 677.771 437.96 706.926 455.777 711.785Z" fill="#2F2E41"/>
<path d="M306.762 711.785C306.762 711.785 290.565 697.208 288.946 708.546C287.326 719.884 290.565 765.236 290.565 765.236C290.565 765.236 274.368 799.25 298.664 799.25C322.96 799.25 334.298 773.334 331.058 747.419C327.819 721.503 342.396 711.785 342.396 711.785C342.396 711.785 360.213 676.151 342.396 672.912C324.579 669.673 318.1 677.771 318.1 677.771C318.1 677.771 324.579 706.926 306.762 711.785Z" fill="#2F2E41"/>
<path d="M365.072 263.123C385.647 263.123 402.326 246.444 402.326 225.87C402.326 205.295 385.647 188.616 365.072 188.616C344.498 188.616 327.819 205.295 327.819 225.87C327.819 246.444 344.498 263.123 365.072 263.123Z" fill="#FFB8B8"/>
<path d="M370.741 289.849L348.065 272.032L292.995 297.947L291.375 445.342C291.375 445.342 257.361 461.539 267.079 482.595C267.079 482.595 296.234 489.074 309.192 502.032C322.15 514.989 395.037 497.173 425.812 487.454C456.586 477.736 464.685 466.398 464.685 466.398L433.91 422.665L451.727 310.905L396.663 273.884L370.741 289.849Z" fill="#E6E6E6"/>
<path d="M410.363 200.514C409.551 199.413 408.81 198.261 408.142 197.067C406.987 194.254 408.812 190.939 407.107 188.311C405.366 185.63 400.948 185.064 397.942 183.242C393.311 180.436 392.469 174.929 388.13 171.836C385.004 169.607 380.546 169.007 376.369 169.134C372.191 169.261 368.07 170.016 363.89 170.099C358.249 170.225 352.652 169.08 347.513 166.75L350.596 172.781C347.17 172.034 343.897 170.707 340.918 168.858C339.555 170.549 342.05 173.117 340.503 174.703C339.869 175.215 339.119 175.563 338.318 175.716C332.372 177.406 326.772 180.137 321.781 183.784C320.625 184.519 319.669 185.528 318.998 186.722C318.194 188.503 318.907 190.47 318.846 192.363C318.735 195.804 316.108 198.804 314.244 201.904C312.381 205.003 311.374 209.022 314.139 211.653C314.811 212.187 315.456 212.756 316.07 213.356C318.84 216.623 313.937 221.408 316.3 224.875C317.326 226.38 319.429 227.142 321.257 228.031C324.758 229.668 327.704 232.294 329.732 235.584L328.311 225.156C328.236 224.898 328.223 224.627 328.272 224.363C328.321 224.099 328.431 223.851 328.594 223.637C329.282 222.936 330.723 223.215 331.673 222.751C332.718 222.24 332.797 221.067 332.755 220.085L332.436 212.514C332.292 209.11 332.252 208.658 334.759 205.909C336.511 203.99 339.267 202.831 342.035 201.979C348.36 200.032 355.163 199.359 361.888 198.701C369.697 197.937 378.49 194.148 384.554 198.171C389.518 201.464 391.169 206.877 393.561 211.678C395.711 215.993 401.229 228.698 405.822 221.82C408.707 217.501 413.12 205.323 410.363 200.514Z" fill="#2F2E41"/>
<path d="M371.468 215.063C371.314 215.063 371.167 215.124 371.059 215.233C370.95 215.341 370.889 215.488 370.889 215.642V231.239C370.889 231.392 370.95 231.539 371.059 231.648C371.167 231.756 371.314 231.817 371.468 231.817H398.317C398.471 231.817 398.618 231.756 398.727 231.648C398.835 231.539 398.896 231.392 398.896 231.239V215.642C398.896 215.488 398.835 215.341 398.727 215.233C398.618 215.124 398.471 215.063 398.317 215.063L371.468 215.063Z" fill="#3F3D56"/>
<path d="M374.468 216.438C374.182 216.439 373.908 216.553 373.706 216.755C373.504 216.957 373.39 217.231 373.39 217.517V229.363C373.39 229.649 373.504 229.923 373.706 230.126C373.908 230.328 374.182 230.442 374.468 230.442H395.317C395.603 230.442 395.877 230.328 396.079 230.126C396.281 229.923 396.395 229.649 396.395 229.363V217.517C396.395 217.231 396.281 216.957 396.079 216.755C395.877 216.553 395.603 216.439 395.317 216.438H374.468Z" fill="#FF6584"/>
<path d="M371.77 220.201H357.784V223.44H371.77V220.201Z" fill="#3F3D56"/>
<path d="M333.447 215.063C333.293 215.063 333.146 215.124 333.038 215.233C332.929 215.341 332.868 215.488 332.868 215.642V231.239C332.868 231.392 332.929 231.539 333.038 231.648C333.146 231.756 333.293 231.817 333.447 231.817H360.297C360.45 231.817 360.597 231.756 360.706 231.648C360.814 231.539 360.875 231.392 360.875 231.239V215.642C360.875 215.488 360.814 215.341 360.706 215.233C360.597 215.124 360.45 215.063 360.297 215.063L333.447 215.063Z" fill="#3F3D56"/>
<path d="M336.448 216.438C336.162 216.439 335.887 216.552 335.685 216.755C335.483 216.957 335.369 217.231 335.369 217.517V229.363C335.369 229.649 335.483 229.924 335.685 230.126C335.887 230.328 336.162 230.442 336.448 230.442H357.296C357.582 230.442 357.856 230.328 358.058 230.126C358.261 229.924 358.375 229.649 358.375 229.363V217.517C358.375 217.231 358.261 216.957 358.058 216.755C357.856 216.552 357.582 216.439 357.296 216.438H336.448Z" fill="#EE4444"/>
<path d="M318.769 409.75H411.769C415.482 409.75 419.043 411.225 421.669 413.85C424.294 416.476 425.769 420.037 425.769 423.75V423.75H304.769C304.769 420.037 306.244 416.476 308.87 413.85C311.495 411.225 315.056 409.75 318.769 409.75V409.75Z" fill="#3F3D56"/>
<path d="M418.269 408.75C417.725 408.752 417.185 408.844 416.67 409.022C416.494 408.312 416.063 407.691 415.461 407.277C414.858 406.862 414.124 406.683 413.398 406.772C412.671 406.862 412.003 407.214 411.519 407.763C411.035 408.311 410.768 409.018 410.769 409.75C410.769 409.765 410.773 409.779 410.773 409.794C410.398 409.829 410.028 409.906 409.67 410.022C409.569 409.618 409.384 409.24 409.129 408.911C408.874 408.582 408.553 408.31 408.187 408.111C409.148 407.58 409.909 406.748 410.351 405.743C410.914 405.799 411.481 405.735 412.017 405.557C412.553 405.379 413.046 405.09 413.463 404.708C413.88 404.327 414.211 403.862 414.437 403.344C414.662 402.825 414.775 402.266 414.769 401.701C414.763 401.136 414.639 400.578 414.403 400.065C414.167 399.551 413.826 399.093 413.402 398.721C412.977 398.348 412.479 398.069 411.939 397.901C411.399 397.734 410.83 397.683 410.269 397.75C409.725 397.752 409.185 397.844 408.67 398.022C408.578 397.629 408.407 397.259 408.167 396.933C407.928 396.608 407.625 396.335 407.277 396.13C406.929 395.925 406.543 395.792 406.142 395.74C405.742 395.689 405.335 395.719 404.946 395.829C404.557 395.938 404.195 396.126 403.881 396.38C403.566 396.634 403.307 396.948 403.118 397.305C402.928 397.662 402.813 398.054 402.78 398.456C402.746 398.859 402.794 399.264 402.921 399.647C402.802 399.73 402.69 399.824 402.578 399.917C402.013 399.43 401.278 399.186 400.534 399.236C400.149 398.132 399.388 397.198 398.384 396.598C397.38 395.999 396.197 395.771 395.043 395.956C393.888 396.141 392.835 396.727 392.069 397.61C391.302 398.493 390.871 399.618 390.85 400.787C390.449 400.819 390.053 400.898 389.67 401.022C389.627 400.853 389.569 400.688 389.498 400.529C389.893 400.18 390.21 399.753 390.429 399.274C390.648 398.796 390.764 398.276 390.769 397.75C390.699 396.624 390.187 395.572 389.344 394.823C388.501 394.073 387.396 393.688 386.269 393.75C385.725 393.752 385.185 393.844 384.67 394.022C384.578 393.629 384.407 393.259 384.167 392.933C383.928 392.608 383.625 392.335 383.277 392.13C382.929 391.925 382.543 391.792 382.142 391.74C381.742 391.689 381.335 391.719 380.946 391.829C380.557 391.938 380.195 392.126 379.881 392.38C379.566 392.634 379.307 392.948 379.118 393.305C378.928 393.662 378.813 394.054 378.78 394.456C378.746 394.859 378.794 395.264 378.921 395.647C378.292 396.085 377.771 396.661 377.401 397.332C377.03 398.003 376.819 398.751 376.784 399.516C376.742 399.554 376.693 399.585 376.653 399.624C376.728 399.339 376.767 399.045 376.769 398.75C376.699 397.624 376.187 396.572 375.344 395.823C374.501 395.073 373.396 394.688 372.269 394.75C371.725 394.752 371.185 394.844 370.67 395.022C370.578 394.629 370.407 394.259 370.167 393.933C369.928 393.608 369.625 393.335 369.277 393.13C368.929 392.925 368.543 392.792 368.142 392.74C367.742 392.689 367.335 392.719 366.946 392.829C366.557 392.938 366.195 393.126 365.881 393.38C365.566 393.634 365.307 393.948 365.118 394.305C364.928 394.662 364.813 395.054 364.78 395.456C364.746 395.859 364.794 396.264 364.921 396.647C364.257 397.106 363.715 397.719 363.34 398.434C362.965 399.148 362.769 399.943 362.769 400.75C362.769 401.557 362.965 402.352 363.34 403.066C363.715 403.781 364.257 404.394 364.921 404.853C364.719 405.434 364.719 406.066 364.921 406.647C364.42 406.997 363.987 407.435 363.642 407.939C363.457 407.267 363.042 406.682 362.47 406.284C361.898 405.886 361.205 405.701 360.511 405.761C359.817 405.821 359.166 406.122 358.67 406.612C358.175 407.102 357.867 407.751 357.8 408.444C357.399 408.209 356.966 408.034 356.515 407.925C357.325 407.39 357.962 406.632 358.351 405.743C358.913 405.799 359.481 405.735 360.017 405.557C360.553 405.379 361.046 405.09 361.463 404.708C361.88 404.327 362.211 403.862 362.436 403.344C362.662 402.825 362.775 402.266 362.769 401.701C362.763 401.136 362.639 400.578 362.403 400.065C362.167 399.551 361.826 399.093 361.401 398.721C360.977 398.348 360.479 398.069 359.939 397.901C359.399 397.734 358.83 397.683 358.269 397.75C357.725 397.752 357.185 397.844 356.67 398.022C356.578 397.629 356.407 397.259 356.167 396.933C355.928 396.608 355.625 396.335 355.277 396.13C354.929 395.925 354.543 395.792 354.142 395.74C353.742 395.689 353.335 395.719 352.946 395.829C352.557 395.938 352.195 396.126 351.881 396.38C351.566 396.634 351.307 396.948 351.118 397.305C350.928 397.662 350.813 398.054 350.78 398.456C350.746 398.859 350.794 399.264 350.921 399.647C350.857 399.692 350.799 399.744 350.737 399.792C350.581 399.777 350.43 399.75 350.269 399.75C349.725 399.752 349.185 399.844 348.67 400.022C348.651 399.947 348.62 399.877 348.596 399.804C348.693 399.359 348.685 398.897 348.573 398.455C348.461 398.014 348.249 397.604 347.952 397.258C347.655 396.912 347.283 396.64 346.863 396.463C346.443 396.286 345.988 396.208 345.533 396.236C345.273 395.511 344.848 394.856 344.293 394.322C343.737 393.788 343.066 393.39 342.331 393.159C341.596 392.928 340.817 392.87 340.056 392.99C339.295 393.11 338.572 393.404 337.943 393.849C337.315 394.295 336.798 394.88 336.433 395.558C336.068 396.237 335.865 396.991 335.84 397.761C335.814 398.531 335.968 399.296 336.287 399.997C336.607 400.698 337.085 401.316 337.683 401.802C337.339 401.841 336.999 401.915 336.67 402.022C336.552 401.535 336.312 401.085 335.973 400.715C335.635 400.345 335.208 400.067 334.732 399.906C334.257 399.746 333.749 399.708 333.255 399.797C332.761 399.886 332.298 400.098 331.908 400.414C331.463 399.885 330.905 399.461 330.276 399.173C329.646 398.885 328.961 398.741 328.269 398.75C327.725 398.752 327.185 398.844 326.67 399.022C326.578 398.629 326.407 398.259 326.167 397.933C325.928 397.608 325.625 397.335 325.277 397.13C324.929 396.925 324.543 396.792 324.142 396.74C323.742 396.689 323.335 396.719 322.946 396.829C322.557 396.938 322.195 397.126 321.88 397.38C321.566 397.634 321.307 397.948 321.117 398.305C320.928 398.662 320.813 399.054 320.78 399.456C320.746 399.859 320.794 400.264 320.921 400.647C320.257 401.106 319.715 401.719 319.34 402.434C318.965 403.148 318.769 403.943 318.769 404.75C318.769 404.765 318.774 404.78 318.774 404.795C318.065 404.688 317.34 404.766 316.67 405.022C316.578 404.629 316.407 404.259 316.167 403.933C315.928 403.608 315.625 403.335 315.277 403.13C314.929 402.925 314.543 402.792 314.142 402.74C313.741 402.689 313.335 402.719 312.946 402.829C312.557 402.938 312.195 403.126 311.88 403.38C311.566 403.634 311.307 403.948 311.117 404.305C310.928 404.662 310.813 405.054 310.779 405.456C310.746 405.859 310.794 406.264 310.921 406.647C309.957 407.3 309.252 408.27 308.929 409.389C308.606 410.508 308.685 411.705 309.153 412.771C309.621 413.838 310.448 414.707 311.49 415.227C312.532 415.746 313.723 415.885 314.857 415.617C315.037 416.66 315.545 417.619 316.307 418.354C317.07 419.089 318.046 419.562 319.095 419.705C320.144 419.847 321.212 419.652 322.142 419.147C323.073 418.642 323.818 417.853 324.271 416.896C327.872 417.364 331.528 417.2 335.073 416.409C335.404 417.357 336.012 418.182 336.82 418.777C337.627 419.373 338.596 419.711 339.598 419.747C340.601 419.783 341.591 419.515 342.439 418.979C343.287 418.443 343.953 417.664 344.351 416.743C345.08 416.728 345.797 416.551 346.449 416.224C346.905 417.03 347.577 417.693 348.39 418.138C349.203 418.583 350.124 418.793 351.049 418.743C351.974 418.693 352.867 418.385 353.627 417.855C354.387 417.325 354.984 416.594 355.351 415.743C356.463 415.532 357.614 415.717 358.604 416.267C359.594 416.816 360.36 417.695 360.769 418.75C361.438 417.834 362.298 417.076 363.29 416.527C364.282 415.978 365.382 415.652 366.513 415.571C367.518 415.851 368.586 415.802 369.561 415.429C370.536 415.057 371.365 414.382 371.928 413.503C371.613 414.721 371.77 416.013 372.366 417.12C372.962 418.228 373.953 419.07 375.142 419.479C376.332 419.887 377.631 419.833 378.782 419.326C379.933 418.819 380.85 417.896 381.351 416.743C382.08 416.728 382.797 416.551 383.449 416.224C383.905 417.03 384.577 417.693 385.39 418.138C386.203 418.583 387.124 418.793 388.049 418.743C388.974 418.693 389.867 418.385 390.627 417.855C391.387 417.325 391.984 416.594 392.351 415.743C393.08 415.728 393.797 415.551 394.449 415.224C394.8 415.85 395.284 416.393 395.867 416.813C396.449 417.234 397.116 417.523 397.822 417.66C398.527 417.796 399.254 417.778 399.952 417.605C400.649 417.433 401.301 417.11 401.861 416.66C402.035 417.617 402.485 418.502 403.155 419.206C403.826 419.91 404.688 420.402 405.635 420.621C406.582 420.841 407.573 420.778 408.485 420.442C409.397 420.105 410.19 419.508 410.767 418.726C411.367 419.186 412.065 419.502 412.806 419.652C413.547 419.801 414.312 419.78 415.044 419.588C415.776 419.397 416.454 419.041 417.027 418.548C417.6 418.055 418.053 417.437 418.351 416.743C418.913 416.798 419.481 416.735 420.017 416.557C420.553 416.379 421.046 416.09 421.463 415.708C421.88 415.327 422.211 414.862 422.436 414.344C422.662 413.825 422.775 413.266 422.769 412.701C422.763 412.136 422.639 411.578 422.403 411.065C422.167 410.551 421.826 410.093 421.401 409.72C420.977 409.348 420.478 409.069 419.939 408.901C419.399 408.734 418.83 408.683 418.269 408.75L418.269 408.75ZM328.891 406.686C328.886 406.71 328.882 406.735 328.877 406.759C328.841 406.758 328.806 406.75 328.769 406.75C328.62 406.754 328.471 406.769 328.324 406.795C328.332 406.777 328.343 406.761 328.351 406.743C328.532 406.734 328.712 406.715 328.891 406.686V406.686ZM370.67 405.022C370.656 404.964 370.631 404.91 370.613 404.854C371.376 404.324 371.978 403.594 372.351 402.743C373.009 402.739 373.658 402.597 374.257 402.326C374.856 402.055 375.392 401.66 375.828 401.168C375.79 401.36 375.77 401.555 375.769 401.75C375.774 402.055 375.825 402.358 375.921 402.647C375.063 403.246 374.413 404.098 374.062 405.084C372.975 404.661 371.772 404.639 370.67 405.022V405.022ZM400.621 405.395C400.619 405.334 400.626 405.271 400.622 405.21C400.75 405.209 400.877 405.201 401.003 405.184C401.197 405.831 401.521 406.431 401.956 406.949C401.862 406.975 401.762 406.991 401.67 407.022C401.509 406.379 401.14 405.807 400.621 405.395V405.395Z" fill="#F9A825"/>
<path d="M314.843 414.75C313.424 414.75 312.021 415.039 310.718 415.599C309.415 416.159 308.239 416.979 307.263 418.009C306.288 419.038 305.532 420.256 305.043 421.587C304.553 422.919 304.34 424.336 304.416 425.752L311.187 518.867C311.33 521.536 312.491 524.049 314.431 525.887C316.371 527.726 318.942 528.75 321.614 528.75H408.925C411.597 528.75 414.168 527.726 416.108 525.887C418.048 524.049 419.209 521.536 419.351 518.867L426.123 425.752C426.199 424.336 425.986 422.919 425.496 421.587C425.007 420.256 424.251 419.038 423.275 418.009C422.3 416.979 421.124 416.159 419.821 415.599C418.518 415.039 417.115 414.75 415.696 414.75H314.843Z" fill="#3F3D56"/>
<path d="M325.769 414.75H319.769V528.75H325.769V414.75Z" fill="#EE4444"/>
<path d="M342.769 414.75H336.769V528.75H342.769V414.75Z" fill="#EE4444"/>
<path d="M359.769 414.75H353.769V528.75H359.769V414.75Z" fill="#EE4444"/>
<path d="M376.769 414.75H370.769V528.75H376.769V414.75Z" fill="#EE4444"/>
<path d="M393.769 414.75H387.769V528.75H393.769V414.75Z" fill="#EE4444"/>
<path d="M410.769 414.75H404.769V528.75H410.769V414.75Z" fill="#EE4444"/>
<path d="M404.755 471.257L385.319 482.595C385.319 482.595 338.347 521.468 370.741 527.947C403.136 534.426 411.234 500.412 411.234 500.412L422.572 487.454L404.755 471.257Z" fill="#FFB8B8"/>
<path d="M312.431 463.158L331.868 474.496C331.868 474.496 378.84 513.37 346.446 519.849C314.051 526.327 305.953 492.313 305.953 492.313L294.615 479.356L312.431 463.158Z" fill="#FFB8B8"/>
<path d="M430.671 309.285L451.727 310.905C451.727 310.905 467.924 325.482 466.305 344.919C466.305 344.919 480.882 387.032 477.643 404.849C477.643 404.849 480.882 434.004 476.023 445.342C471.164 456.68 430.671 500.412 430.671 500.412C430.671 500.412 393.417 471.257 395.037 469.637L443.629 421.046L419.333 388.651L430.671 309.285Z" fill="#E6E6E6"/>
<path d="M292.995 297.947L292.185 298.757C292.185 298.757 255.741 314.144 257.361 333.581C257.361 333.581 242.784 375.694 246.023 393.511C246.023 393.511 242.784 422.665 247.643 434.004C252.502 445.342 292.995 489.074 292.995 489.074C292.995 489.074 330.248 459.919 328.629 458.299L280.037 409.708L304.333 377.313L292.995 297.947Z" fill="#E6E6E6"/>
</g>
</g>
<defs>
<clipPath id="clip0_2_43">
<rect width="1064" height="990" fill="white"/>
</clipPath>
<clipPath id="clip1_2_43">
<rect width="719.769" height="687.25" fill="white" transform="translate(37 112)"/>
</clipPath>
</defs>
</svg>
