<svg xmlns="http://www.w3.org/2000/svg" width="523" height="54.892" viewBox="0 0 523 54.892">
  <title>movie_night</title>
  <g id="Layer_2" data-name="Layer 2">
    <g id="Layer_1-2" data-name="Layer 1">
      <g>
        <g>
          <path d="M45.978,52.849l-.147-23.467L34.649,48.214H27L15.817,30.191V52.849H0V1.353H14.272l16.773,27.44L47.376,1.353H61.648l.147,51.5Z" style="fill: #fff"/>
          <path d="M179.752,1.353l-21.775,51.5H140.91l-21.776-51.5h18.685L150.1,31.441,162.684,1.353Z" style="fill: #fff"/>
          <path d="M184.443,1.353H201.8v51.5H184.443Z" style="fill: #fff"/>
          <path d="M250.005,39.754v13.1H207.19V1.353h41.859v13.1H224.257v6.033h21.776v12.5H224.257v6.768Z" style="fill: #fff"/>
          <path d="M329.528,1.353v51.5H315.256L295.688,29.455V52.849H278.767V1.353H293.04l19.567,23.394V1.353Z" style="fill: #fff"/>
          <path d="M337.912,1.353h17.362v51.5H337.912Z" style="fill: #fff"/>
          <path d="M397.721,25.7H412.8V47.479a35,35,0,0,1-10.593,4.855,43.741,43.741,0,0,1-11.844,1.692,31.442,31.442,0,0,1-14.787-3.421,25.557,25.557,0,0,1-10.262-9.563A26.4,26.4,0,0,1,361.6,27.1a26.4,26.4,0,0,1,3.715-13.94A25.4,25.4,0,0,1,375.688,3.6,32.442,32.442,0,0,1,390.731.177,34.541,34.541,0,0,1,404.3,2.714a25.493,25.493,0,0,1,9.968,7.394l-11.108,9.784q-4.855-5.664-11.55-5.665a12.18,12.18,0,0,0-9.122,3.458q-3.386,3.459-3.384,9.416a13.021,13.021,0,0,0,3.348,9.343,11.734,11.734,0,0,0,8.938,3.531,16.34,16.34,0,0,0,6.327-1.251Z" style="fill: #fff"/>
          <path d="M470.991,1.353v51.5H453.63V33.869H437.592v18.98H420.231V1.353h17.361V19.6H453.63V1.353Z" style="fill: #fff"/>
          <path d="M490.558,14.816h-15.08V1.353H523V14.816H507.92V52.849H490.558Z" style="fill: #fff"/>
        </g>
        <path d="M99.481,0a28.028,28.028,0,0,1-29.1,45.316A28.027,28.027,0,1,0,99.481,0Z" style="fill: #fff"/>
      </g>
    </g>
  </g>
</svg>
