<svg id="Layer_1" data-name="Layer 1" xmlns="http://www.w3.org/2000/svg" width="300" height="169" viewBox="0 0 300 169">
  <title>placeholder</title>
  <rect width="300" height="169" style="fill: #1e293b"/>
  <g>
    <path d="M156.867,87.476l-.147-23.467L145.538,82.841h-7.65L126.705,64.818V87.476H110.888V35.98h14.273l16.773,27.44,16.331-27.44h14.272l.147,51.5Z" style="fill: #334155"/>
    <path d="M167.757,34.46A32.369,32.369,0,0,1,175.251,55.3c0,17.481-13.549,31.652-30.261,31.652a29.024,29.024,0,0,1-8.645-1.318,29.637,29.637,0,0,0,22.767,10.813c16.712,0,30.26-14.171,30.26-31.651C189.372,50.456,180.256,38.352,167.757,34.46Z" style="fill: #334155;stroke: #1e293b;stroke-miterlimit: 10"/>
  </g>
</svg>
