<svg xmlns="http://www.w3.org/2000/svg" width="1957.861" height="291.722" viewBox="0 0 1957.861 291.722">
  <title>waves</title>
  <g id="Layer_2" data-name="Layer 2">
    <g id="Layer_1-2" data-name="Layer 1">
      <g>
        <path d="M1957.861,144.018c-27.759-9.533-55.518-18.691-83.278-16.224-62.486,5.265-124.972,68.73-187.458,63.465-62.486-5.553-124.972-79.115-187.458-95.2-62.486-15.65-124.973,26.179-187.459,42.262-62.486,15.65-124.972,5.553-187.458-10.53-62.486-15.65-124.972-37.286-187.458-52.936C874.806,58.776,812.319,48.679,749.833,32.6c-62.486-15.649-124.972-37.285-187.458,0-62.486,37-124.972,132.2-187.458,148.062s-124.973-47.6-187.459-52.864c-62.486-5.553-124.972,47.815-156.215,73.995L0,228.257v63.465H1957.861Z" style="fill: #0f172a"/>
        <path d="M1957.861,109.788c-27.759-26.3-55.518-49.012-83.278-56.061-62.486-15.866-124.972,47.6-187.458,52.864-62.486,5.553-124.972-47.815-187.458-52.864s-124.973,36.781-187.459,47.6-124.972-10.818-187.458,0S999.778,153.974,937.292,154.19c-62.486-.216-124.973-42.046-187.459-79.332C687.347,37.861,624.861,6.129,562.375.864,499.889-4.689,437.4,16.947,374.917,53.727s-124.973,90.15-187.459,89.933c-62.486.217-124.972-53.152-156.215-79.331L0,37.861V291.722H1957.861Z" style="fill: #0f172a;opacity: 0.8999999761581421;isolation: isolate"/>
      </g>
    </g>
  </g>
</svg>
